<mxfile host="app.diagrams.net" modified="2022-03-01T10:42:50.400Z" agent="5.0 (Macintosh)" etag="Bol9mpVG_5DFHqfDoqQB" version="16.6.4" type="github">
  <diagram id="0Xl3_Vg21m-oS7nSwl57" name="Page-1">
    <mxGraphModel dx="914" dy="527" grid="1" gridSize="10" guides="1" tooltips="1" connect="1" arrows="1" fold="1" page="1" pageScale="1" pageWidth="850" pageHeight="1100" math="0" shadow="0">
      <root>
        <mxCell id="0" />
        <mxCell id="1" parent="0" />
        <mxCell id="a7YTL6VyCZSgpKtwDbg1-42" style="edgeStyle=orthogonalEdgeStyle;rounded=0;orthogonalLoop=1;jettySize=auto;html=1;exitX=0;exitY=0.5;exitDx=0;exitDy=0;entryX=0.5;entryY=1;entryDx=0;entryDy=0;" parent="1" source="a7YTL6VyCZSgpKtwDbg1-1" target="a7YTL6VyCZSgpKtwDbg1-3" edge="1">
          <mxGeometry relative="1" as="geometry" />
        </mxCell>
        <mxCell id="a7YTL6VyCZSgpKtwDbg1-1" value="Odyssey " style="rounded=0;whiteSpace=wrap;html=1;fillColor=#f5f5f5;fontColor=#333333;strokeColor=#666666;" parent="1" vertex="1">
          <mxGeometry x="282" y="580" width="120" height="60" as="geometry" />
        </mxCell>
        <mxCell id="a7YTL6VyCZSgpKtwDbg1-44" style="edgeStyle=orthogonalEdgeStyle;rounded=0;orthogonalLoop=1;jettySize=auto;html=1;entryX=0.5;entryY=1;entryDx=0;entryDy=0;" parent="1" source="a7YTL6VyCZSgpKtwDbg1-2" target="a7YTL6VyCZSgpKtwDbg1-3" edge="1">
          <mxGeometry relative="1" as="geometry">
            <Array as="points">
              <mxPoint x="270" y="690" />
              <mxPoint x="270" y="820" />
              <mxPoint x="485" y="820" />
            </Array>
          </mxGeometry>
        </mxCell>
        <mxCell id="a7YTL6VyCZSgpKtwDbg1-2" value="Cai$hen" style="rounded=0;whiteSpace=wrap;html=1;fillColor=#f5f5f5;fontColor=#333333;strokeColor=#666666;" parent="1" vertex="1">
          <mxGeometry x="282" y="660" width="120" height="60" as="geometry" />
        </mxCell>
        <mxCell id="a7YTL6VyCZSgpKtwDbg1-51" value="" style="edgeStyle=orthogonalEdgeStyle;rounded=0;orthogonalLoop=1;jettySize=auto;html=1;" parent="1" source="a7YTL6VyCZSgpKtwDbg1-3" target="a7YTL6VyCZSgpKtwDbg1-8" edge="1">
          <mxGeometry relative="1" as="geometry" />
        </mxCell>
        <mxCell id="a7YTL6VyCZSgpKtwDbg1-3" value="FDP&lt;br&gt;Aggregator" style="rounded=0;whiteSpace=wrap;html=1;fillColor=#dae8fc;strokeColor=#6c8ebf;" parent="1" vertex="1">
          <mxGeometry x="425" y="740" width="120" height="60" as="geometry" />
        </mxCell>
        <mxCell id="a7YTL6VyCZSgpKtwDbg1-45" style="edgeStyle=orthogonalEdgeStyle;rounded=0;orthogonalLoop=1;jettySize=auto;html=1;entryX=0.5;entryY=1;entryDx=0;entryDy=0;" parent="1" source="a7YTL6VyCZSgpKtwDbg1-6" target="a7YTL6VyCZSgpKtwDbg1-3" edge="1">
          <mxGeometry relative="1" as="geometry">
            <Array as="points">
              <mxPoint x="270" y="770" />
              <mxPoint x="270" y="820" />
              <mxPoint x="485" y="820" />
            </Array>
          </mxGeometry>
        </mxCell>
        <mxCell id="a7YTL6VyCZSgpKtwDbg1-6" value="Other DataSource" style="rounded=0;whiteSpace=wrap;html=1;fillColor=#f5f5f5;fontColor=#333333;strokeColor=#666666;" parent="1" vertex="1">
          <mxGeometry x="282" y="740" width="120" height="60" as="geometry" />
        </mxCell>
        <mxCell id="a7YTL6VyCZSgpKtwDbg1-52" style="edgeStyle=orthogonalEdgeStyle;rounded=0;orthogonalLoop=1;jettySize=auto;html=1;entryX=0;entryY=0.5;entryDx=0;entryDy=0;" parent="1" source="a7YTL6VyCZSgpKtwDbg1-8" target="a7YTL6VyCZSgpKtwDbg1-10" edge="1">
          <mxGeometry relative="1" as="geometry">
            <Array as="points">
              <mxPoint x="626" y="730" />
              <mxPoint x="410" y="730" />
              <mxPoint x="410" y="690" />
            </Array>
          </mxGeometry>
        </mxCell>
        <mxCell id="a7YTL6VyCZSgpKtwDbg1-53" style="edgeStyle=orthogonalEdgeStyle;rounded=0;orthogonalLoop=1;jettySize=auto;html=1;entryX=0;entryY=0.5;entryDx=0;entryDy=0;" parent="1" source="a7YTL6VyCZSgpKtwDbg1-8" target="a7YTL6VyCZSgpKtwDbg1-9" edge="1">
          <mxGeometry relative="1" as="geometry">
            <Array as="points">
              <mxPoint x="626" y="730" />
              <mxPoint x="410" y="730" />
              <mxPoint x="410" y="610" />
            </Array>
          </mxGeometry>
        </mxCell>
        <mxCell id="a7YTL6VyCZSgpKtwDbg1-64" style="edgeStyle=orthogonalEdgeStyle;rounded=0;orthogonalLoop=1;jettySize=auto;html=1;entryX=0.008;entryY=0.864;entryDx=0;entryDy=0;entryPerimeter=0;" parent="1" source="a7YTL6VyCZSgpKtwDbg1-8" target="a7YTL6VyCZSgpKtwDbg1-13" edge="1">
          <mxGeometry relative="1" as="geometry" />
        </mxCell>
        <mxCell id="a7YTL6VyCZSgpKtwDbg1-8" value="FDP Data Lake" style="rounded=0;whiteSpace=wrap;html=1;fillColor=#dae8fc;strokeColor=#6c8ebf;" parent="1" vertex="1">
          <mxGeometry x="566" y="740" width="120" height="60" as="geometry" />
        </mxCell>
        <mxCell id="a7YTL6VyCZSgpKtwDbg1-49" style="edgeStyle=orthogonalEdgeStyle;rounded=0;orthogonalLoop=1;jettySize=auto;html=1;exitX=1;exitY=0.5;exitDx=0;exitDy=0;entryX=0;entryY=0.5;entryDx=0;entryDy=0;" parent="1" source="a7YTL6VyCZSgpKtwDbg1-9" target="a7YTL6VyCZSgpKtwDbg1-11" edge="1">
          <mxGeometry relative="1" as="geometry" />
        </mxCell>
        <mxCell id="a7YTL6VyCZSgpKtwDbg1-9" value="ES Index Builder" style="rounded=0;whiteSpace=wrap;html=1;fillColor=#dae8fc;strokeColor=#6c8ebf;" parent="1" vertex="1">
          <mxGeometry x="425" y="580" width="120" height="60" as="geometry" />
        </mxCell>
        <mxCell id="a7YTL6VyCZSgpKtwDbg1-50" value="" style="edgeStyle=orthogonalEdgeStyle;rounded=0;orthogonalLoop=1;jettySize=auto;html=1;" parent="1" source="a7YTL6VyCZSgpKtwDbg1-10" target="a7YTL6VyCZSgpKtwDbg1-12" edge="1">
          <mxGeometry relative="1" as="geometry" />
        </mxCell>
        <mxCell id="a7YTL6VyCZSgpKtwDbg1-10" value="DDB Index Builder" style="rounded=0;whiteSpace=wrap;html=1;fillColor=#dae8fc;strokeColor=#6c8ebf;" parent="1" vertex="1">
          <mxGeometry x="425" y="660" width="120" height="60" as="geometry" />
        </mxCell>
        <mxCell id="a7YTL6VyCZSgpKtwDbg1-66" style="edgeStyle=orthogonalEdgeStyle;rounded=0;orthogonalLoop=1;jettySize=auto;html=1;entryX=0.008;entryY=0.136;entryDx=0;entryDy=0;entryPerimeter=0;" parent="1" source="a7YTL6VyCZSgpKtwDbg1-11" target="a7YTL6VyCZSgpKtwDbg1-13" edge="1">
          <mxGeometry relative="1" as="geometry" />
        </mxCell>
        <mxCell id="a7YTL6VyCZSgpKtwDbg1-11" value="ES Index" style="rounded=0;whiteSpace=wrap;html=1;fillColor=#dae8fc;strokeColor=#6c8ebf;" parent="1" vertex="1">
          <mxGeometry x="566" y="580" width="120" height="60" as="geometry" />
        </mxCell>
        <mxCell id="a7YTL6VyCZSgpKtwDbg1-62" style="edgeStyle=orthogonalEdgeStyle;rounded=0;orthogonalLoop=1;jettySize=auto;html=1;" parent="1" source="a7YTL6VyCZSgpKtwDbg1-12" edge="1">
          <mxGeometry relative="1" as="geometry">
            <mxPoint x="710" y="690" as="targetPoint" />
          </mxGeometry>
        </mxCell>
        <mxCell id="a7YTL6VyCZSgpKtwDbg1-12" value="DDB Index" style="rounded=0;whiteSpace=wrap;html=1;fillColor=#dae8fc;strokeColor=#6c8ebf;" parent="1" vertex="1">
          <mxGeometry x="566" y="660" width="120" height="60" as="geometry" />
        </mxCell>
        <mxCell id="a7YTL6VyCZSgpKtwDbg1-55" style="edgeStyle=orthogonalEdgeStyle;rounded=0;orthogonalLoop=1;jettySize=auto;html=1;entryX=0;entryY=0.5;entryDx=0;entryDy=0;" parent="1" source="a7YTL6VyCZSgpKtwDbg1-13" target="a7YTL6VyCZSgpKtwDbg1-23" edge="1">
          <mxGeometry relative="1" as="geometry" />
        </mxCell>
        <mxCell id="a7YTL6VyCZSgpKtwDbg1-56" style="edgeStyle=orthogonalEdgeStyle;rounded=0;orthogonalLoop=1;jettySize=auto;html=1;entryX=0;entryY=0.5;entryDx=0;entryDy=0;" parent="1" source="a7YTL6VyCZSgpKtwDbg1-13" target="a7YTL6VyCZSgpKtwDbg1-15" edge="1">
          <mxGeometry relative="1" as="geometry">
            <Array as="points">
              <mxPoint x="840" y="690" />
              <mxPoint x="840" y="610" />
            </Array>
          </mxGeometry>
        </mxCell>
        <mxCell id="a7YTL6VyCZSgpKtwDbg1-57" style="edgeStyle=orthogonalEdgeStyle;rounded=0;orthogonalLoop=1;jettySize=auto;html=1;entryX=0;entryY=0.5;entryDx=0;entryDy=0;" parent="1" source="a7YTL6VyCZSgpKtwDbg1-13" target="a7YTL6VyCZSgpKtwDbg1-28" edge="1">
          <mxGeometry relative="1" as="geometry">
            <Array as="points">
              <mxPoint x="840" y="690" />
              <mxPoint x="840" y="770" />
            </Array>
          </mxGeometry>
        </mxCell>
        <mxCell id="a7YTL6VyCZSgpKtwDbg1-13" value="&lt;div align=&quot;center&quot;&gt;FDP&lt;br&gt;ARestService&lt;/div&gt;" style="rounded=0;whiteSpace=wrap;html=1;align=center;verticalAlign=top;" parent="1" vertex="1">
          <mxGeometry x="711" y="580" width="120" height="220" as="geometry" />
        </mxCell>
        <mxCell id="a7YTL6VyCZSgpKtwDbg1-15" value="Fee Data &lt;span class=&quot;op_dict3_font24 op_dict3_marginRight c-gap-right&quot;&gt;&lt;br&gt;Analyzer&lt;/span&gt;" style="rounded=0;whiteSpace=wrap;html=1;fillColor=#d5e8d4;strokeColor=#82b366;" parent="1" vertex="1">
          <mxGeometry x="856" y="580" width="120" height="60" as="geometry" />
        </mxCell>
        <mxCell id="a7YTL6VyCZSgpKtwDbg1-17" value="Data Retriver API" style="rounded=1;whiteSpace=wrap;html=1;fillColor=#d5e8d4;strokeColor=#82b366;" parent="1" vertex="1">
          <mxGeometry x="721" y="625" width="100" height="30" as="geometry" />
        </mxCell>
        <mxCell id="a7YTL6VyCZSgpKtwDbg1-18" value="Index Retriver API" style="rounded=1;whiteSpace=wrap;html=1;fillColor=#dae8fc;strokeColor=#6c8ebf;" parent="1" vertex="1">
          <mxGeometry x="721" y="666" width="100" height="30" as="geometry" />
        </mxCell>
        <mxCell id="a7YTL6VyCZSgpKtwDbg1-23" value="FIFA " style="rounded=0;whiteSpace=wrap;html=1;fillColor=#fff2cc;strokeColor=#d6b656;" parent="1" vertex="1">
          <mxGeometry x="856" y="660" width="120" height="60" as="geometry" />
        </mxCell>
        <mxCell id="a7YTL6VyCZSgpKtwDbg1-24" value="Simple APIs" style="rounded=1;whiteSpace=wrap;html=1;fillColor=#d5e8d4;strokeColor=#82b366;" parent="1" vertex="1">
          <mxGeometry x="721" y="707" width="100" height="30" as="geometry" />
        </mxCell>
        <mxCell id="a7YTL6VyCZSgpKtwDbg1-25" value="Gaphql Producer" style="rounded=1;whiteSpace=wrap;html=1;fillColor=#d5e8d4;strokeColor=#82b366;" parent="1" vertex="1">
          <mxGeometry x="721" y="747" width="100" height="30" as="geometry" />
        </mxCell>
        <mxCell id="a7YTL6VyCZSgpKtwDbg1-28" value="FDP other clients" style="rounded=0;whiteSpace=wrap;html=1;fillColor=#fff2cc;strokeColor=#d6b656;" parent="1" vertex="1">
          <mxGeometry x="856" y="740" width="120" height="60" as="geometry" />
        </mxCell>
        <mxCell id="a7YTL6VyCZSgpKtwDbg1-31" value="" style="rounded=1;whiteSpace=wrap;html=1;dashed=1;" parent="1" vertex="1">
          <mxGeometry x="290" y="500" width="450" height="40" as="geometry" />
        </mxCell>
        <mxCell id="a7YTL6VyCZSgpKtwDbg1-33" value="" style="endArrow=classic;html=1;rounded=0;" parent="1" edge="1">
          <mxGeometry width="50" height="50" relative="1" as="geometry">
            <mxPoint x="310" y="510" as="sourcePoint" />
            <mxPoint x="350" y="510" as="targetPoint" />
          </mxGeometry>
        </mxCell>
        <mxCell id="a7YTL6VyCZSgpKtwDbg1-35" value="Data" style="text;html=1;strokeColor=none;fillColor=none;align=center;verticalAlign=middle;whiteSpace=wrap;rounded=0;dashed=1;" parent="1" vertex="1">
          <mxGeometry x="296" y="507" width="60" height="30" as="geometry" />
        </mxCell>
        <mxCell id="a7YTL6VyCZSgpKtwDbg1-37" value="Data Source" style="rounded=1;whiteSpace=wrap;html=1;dashed=1;fillColor=#f5f5f5;fontColor=#333333;strokeColor=#666666;" parent="1" vertex="1">
          <mxGeometry x="380" y="505" width="75" height="30" as="geometry" />
        </mxCell>
        <mxCell id="a7YTL6VyCZSgpKtwDbg1-38" value="FDP Existing" style="rounded=1;whiteSpace=wrap;html=1;dashed=1;fillColor=#dae8fc;strokeColor=#6c8ebf;" parent="1" vertex="1">
          <mxGeometry x="470" y="505" width="75" height="30" as="geometry" />
        </mxCell>
        <mxCell id="a7YTL6VyCZSgpKtwDbg1-39" value="FDP New" style="rounded=1;whiteSpace=wrap;html=1;dashed=1;fillColor=#d5e8d4;strokeColor=#82b366;" parent="1" vertex="1">
          <mxGeometry x="560" y="505" width="75" height="30" as="geometry" />
        </mxCell>
        <mxCell id="a7YTL6VyCZSgpKtwDbg1-40" value="Client" style="rounded=1;whiteSpace=wrap;html=1;dashed=1;fillColor=#fff2cc;strokeColor=#d6b656;" parent="1" vertex="1">
          <mxGeometry x="650" y="505" width="75" height="30" as="geometry" />
        </mxCell>
      </root>
    </mxGraphModel>
  </diagram>
</mxfile>
